<svg t="1730015831646" class="icon" viewBox="0 0 1024 1024" version="1.1"
    xmlns="http://www.w3.org/2000/svg" p-id="20652">
    <path
        d="M554.666667 85.504a127.914667 127.914667 0 0 1 127.744 120.32l0.213333 7.466667 96 0.042666c37.034667 0 67.754667 26.88 73.685333 62.250667l0.768 6.314667 0.256 6.101333-0.042666 160.042667h-85.248a64 64 0 0 0-63.146667 52.906666l-0.64 5.632-0.213333 5.461334a64 64 0 0 0 52.906666 63.146666l5.632 0.64 5.461334 0.213334H853.333333v160.085333a74.666667 74.666667 0 0 1-68.522666 74.410667l-6.101334 0.256-96.042666-0.042667-0.170667 7.381333a128 128 0 0 1-112.554667 119.552l-7.68 0.682667-7.552 0.213333a128 128 0 0 1-127.786666-120.32L426.666667 810.752H330.666667a74.666667 74.666667 0 0 1-73.642667-62.208l-0.768-6.314667L256 736.128 255.957333 640l-6.954666-0.213333a128 128 0 0 1-119.594667-112.554667l-0.682667-7.68L128.512 512a128 128 0 0 1 120.490667-127.786667l6.954666-0.213333V288c0-36.992 26.965333-67.712 62.293334-73.642667l6.272-0.768L330.666667 213.333333l95.957333-0.042666 0.256-7.296a128 128 0 0 1 112.554667-119.594667l7.68-0.682667 7.552-0.213333z m0 64a64 64 0 0 0-63.701334 57.856l-0.298666 6.186667-0.085334 63.744L330.666667 277.333333a10.666667 10.666667 0 0 0-10.368 8.234667L320 288l-0.042667 160.042667H256.512a64 64 0 0 0-6.144 127.701333l6.144 0.298667H320v160.085333a10.666667 10.666667 0 0 0 8.277333 10.368l2.432 0.298667h159.914667l0.085333 63.786666a64 64 0 0 0 127.701334 6.186667L618.666667 810.666667l-0.085334-63.872h160.085334a10.666667 10.666667 0 0 0 10.368-8.192l0.298666-2.432L789.290667 640h-22.314667l-7.68-0.256a128.128 128.128 0 0 1-119.04-121.173333l-0.170667-7.594667 0.256-7.68a128 128 0 0 1 120.277334-119.04L768 384.042667h21.248V288a10.666667 10.666667 0 0 0-5.546667-9.386667l-2.645333-0.981333-2.432-0.298667-160.085333-0.042666 0.085333-63.786667a64 64 0 0 0-64-64z"
        p-id="20653"></path>
</svg>