<svg t="1731055936967" class="icon" viewBox="0 0 1024 1024" version="1.1" xmlns="http://www.w3.org/2000/svg" p-id="5275"
    width="24" height="24">
    <path
        d="M343.7952 746.6656q-32.328533 0-54.727467-22.4-22.4-22.4-22.4-54.728533v-74.6656h63.997867v74.6656q0 4.923733 4.103467 9.0272 4.1024 4.1024 9.026133 4.1024h485.741867q4.922667 0 9.026133-4.1024 4.1024-4.103467 4.1024-9.0272V256h-512v87.7952h-63.997867V183.796267q0-32.328533 22.4-54.728534 22.398933-22.4 54.727467-22.4h485.741867q32.327467 0 54.727466 22.4 22.4 22.4 22.4 54.728534v485.7408q0 32.328533-22.4 54.728533t-54.727466 22.4H343.7952zM194.462933 895.9968q-32.327467 0-54.727466-22.4-22.4-22.4-22.4-54.727467V269.1296h63.998933V818.869333q0 4.923733 4.1024 9.026134 4.103467 4.103467 9.026133 4.103466h549.7408v63.997867H194.462933z m347.895467-262.971733l-44.552533-44.552534 85.661866-87.140266h-316.8v-63.997867h316.8l-85.661866-87.140267 44.552533-44.552533L706.050133 469.333333 542.3584 633.025067z"
        p-id="5276"></path>
</svg>