<svg t="1731053287372" class="icon" viewBox="0 0 1024 1024" version="1.1" xmlns="http://www.w3.org/2000/svg" p-id="7631"
    width="24" height="24">
    <path
        d="M812.16 211.84c70.08 0 126.506667 56.32 126.506667 126.378667v473.962666A126.208 126.208 0 0 1 812.16 938.666667H338.24a126.208 126.208 0 0 1-126.506667-126.506667V338.325333a126.208 126.208 0 0 1 126.506667-126.485333z m0 63.893333H338.24c-33.578667 0-62.506667 27.413333-62.506667 62.506667v473.856c0 33.578667 27.434667 62.506667 62.506667 62.506667H812.16c33.6 0 62.506667-27.434667 62.506667-62.506667V338.218667c0-33.578667-27.413333-62.506667-62.506667-62.506667zM739.093333 85.333333c16.746667 0 30.4 13.738667 32 30.506667 0 18.24-15.253333 32-32 32H224C182.826667 147.84 149.333333 181.333333 149.333333 222.506667v514.922666c0 18.261333-15.253333 32-32 32A32.213333 32.213333 0 0 1 85.333333 737.514667V222.506667A136.533333 136.533333 0 0 1 222.506667 85.333333zM574.506667 383.978667c18.24 0 32 15.232 32 32v127.978666h128c16.746667 0 32 13.738667 32 32 0 18.24-15.253333 32-32 32h-128v127.978667c0 18.24-15.253333 32-32 32a32.213333 32.213333 0 0 1-32-32v-128h-128c-18.261333 0-32-13.738667-32-32 0-18.24 15.253333-32 32-32h128v-127.978667c0-18.24 15.253333-32 32-32z"
        p-id="7632"></path>
</svg>