<svg t="1730209876651" class="icon" viewBox="0 0 1024 1024" version="1.1"
    xmlns="http://www.w3.org/2000/svg" p-id="5426" width="200" height="200">
    <path
        d="M896 64H128a64 64 0 0 0-64 64v768a64 64 0 0 0 64 64h192a64 64 0 0 0 0-128H192V192h640v128a64 64 0 0 0 128 0V128a64 64 0 0 0-64-64"
        p-id="5427"></path>
    <path
        d="M896 640h-128V512a64 64 0 0 0-128 0v128H512a64 64 0 0 0 0 128h128v128a64 64 0 0 0 128 0v-128h128a64 64 0 0 0 0-128"
        p-id="5428"></path>
</svg>