<svg t="1731057668570" class="icon" viewBox="0 0 1024 1024" version="1.1" xmlns="http://www.w3.org/2000/svg" p-id="5283"
    width="24" height="24">
    <path
        d="M208.592593 132.740741a75.851852 75.851852 0 0 0-75.851852 75.851852v94.814814H56.888889v-94.814814a151.703704 151.703704 0 0 1 151.703704-151.703704h94.814814v75.851852h-94.814814zM815.407407 132.740741h-94.814814V56.888889h94.814814a151.703704 151.703704 0 0 1 151.703704 151.703704v94.814814h-75.851852v-94.814814a75.851852 75.851852 0 0 0-75.851852-75.851852zM132.740741 720.592593v94.814814a75.851852 75.851852 0 0 0 75.851852 75.851852h94.814814v75.851852h-94.814814a151.703704 151.703704 0 0 1-151.703704-151.703704v-94.814814h75.851852zM891.259259 815.407407v-94.814814h75.851852v94.814814a151.703704 151.703704 0 0 1-151.703704 151.703704h-94.814814v-75.851852h94.814814a75.851852 75.851852 0 0 0 75.851852-75.851852zM227.555556 493.037037c0-146.62163 118.859852-265.481481 265.481481-265.481481s265.481481 118.859852 265.481482 265.481481c0 59.638519-19.664593 114.669037-52.849778 158.985482l79.663407 79.68237-53.627259 53.627259-79.68237-79.663407A264.305778 264.305778 0 0 1 493.037037 758.518519c-146.62163 0-265.481481-118.859852-265.481481-265.481482z m265.481481-189.62963c-104.732444 0-189.62963 84.897185-189.62963 189.62963s84.897185 189.62963 189.62963 189.62963 189.62963-84.897185 189.62963-189.62963-84.897185-189.62963-189.62963-189.62963z"
        p-id="5284"></path>
</svg>