<svg t="1731054271192" class="icon" viewBox="0 0 1024 1024" version="1.1" xmlns="http://www.w3.org/2000/svg"
    p-id="11512" width="24" height="24">
    <path
        d="M375.466667 213.333333H554.666667c25.6 0 42.666667 17.066667 42.666666 42.666667v85.333333h-8.533333c-38.4 0-55.466667 46.933333-29.866667 72.533334 8.533333 8.533333 17.066667 12.8 29.866667 12.8h8.533333v8.533333c0 12.8 4.266667 21.333333 12.8 29.866667 25.6 25.6 72.533333 8.533333 72.533334-29.866667V426.666667h85.333333c25.6 0 42.666667 17.066667 42.666667 42.666666v179.2c0 12.8 4.266667 21.333333 12.8 29.866667 25.6 25.6 72.533333 8.533333 72.533333-29.866667V469.333333c0-72.533333-55.466667-128-128-128h-85.333333V256c0-72.533333-55.466667-128-128-128H375.466667c-38.4 0-55.466667 46.933333-29.866667 72.533333 8.533333 8.533333 21.333333 12.8 29.866667 12.8zM904.533333 866.133333l-768-768c-17.066667-17.066667-42.666667-17.066667-59.733333 0-17.066667 17.066667-17.066667 42.666667 0 59.733334l59.733333 59.733333c-4.266667 12.8-8.533333 25.6-8.533333 38.4v298.666667c0 72.533333 55.466667 128 128 128h85.333333v85.333333c0 72.533333 55.466667 128 128 128h298.666667c12.8 0 25.6-4.266667 38.4-8.533333l38.4 38.4c17.066667 17.066667 42.666667 17.066667 59.733333 0 17.066667-17.066667 17.066667-42.666667 0-59.733334zM516.266667 597.333333H426.666667v-89.6l89.6 89.6zM256 597.333333c-25.6 0-42.666667-17.066667-42.666667-42.666666V294.4l136.533334 136.533333c-4.266667 12.8-8.533333 25.6-8.533334 38.4v128H256z m213.333333 213.333334c-25.6 0-42.666667-17.066667-42.666666-42.666667v-85.333333h128c12.8 0 25.6-4.266667 38.4-8.533334l136.533333 136.533334H469.333333z"
        p-id="11513"></path>
</svg>