<svg t="1730015598169" class="icon" viewBox="0 0 1024 1024" version="1.1"
    xmlns="http://www.w3.org/2000/svg" p-id="10313">
    <path
        d="M896 820.224V320a192 192 0 0 0-192-192H203.776C230.208 53.568 300.48 0 384 0h448a192 192 0 0 1 192 192v448c0 83.52-53.632 153.792-128 180.224zM832 384v448c0 105.984-85.952 192-192 192H192c-106.048 0-192-86.016-192-192V384a192 192 0 0 1 192-192h448a192 192 0 0 1 192 192zM128 384v448c0 35.392 28.608 64 64 64h448c35.392 0 64-28.608 64-64V384a64 64 0 0 0-64-64H192a64 64 0 0 0-64 64z"
        p-id="10314"></path>
</svg>